<?xml version="1.0" encoding="UTF-8"?><svg xmlns="http://www.w3.org/2000/svg" xmlns:xlink="http://www.w3.org/1999/xlink" contentScriptType="text/ecmascript" width="774" zoomAndPan="magnify" contentStyleType="text/css" viewBox="0 0 774 475.499981" height="475.499981" preserveAspectRatio="xMidYMid meet" version="1.0"><defs><clipPath id="clip-0"><path d="M 264 211 L 471 211 L 471 418.230469 L 264 418.230469 Z M 264 211 " clip-rule="nonzero"/></clipPath></defs><g clip-path="url(#clip-0)"><path fill="rgb(76.469421%, 17.248535%, 25.099182%)" d="M 462.910156 275.039062 C 448.054688 270.148438 434.078125 261.8125 422.265625 249.984375 C 412.480469 240.195312 405.082031 228.925781 400.050781 216.902344 C 364.242188 205.117188 323.265625 213.453125 294.796875 241.960938 C 254.5 282.296875 254.5 347.707031 294.796875 388.046875 C 314.421875 407.699219 339.988281 417.75 365.707031 418.253906 C 365.542969 413.878906 365.394531 410.089844 365.257812 407.070312 C 363.386719 407.292969 361.699219 407.449219 360.371094 407.464844 C 353.542969 407.578125 355.496094 405.410156 347.332031 347.441406 C 338.46875 284.488281 356.148438 240.523438 362.378906 235.933594 C 368.613281 231.347656 369.386719 243.382812 369.386719 243.382812 L 382.867188 393.753906 C 383.03125 395.566406 383.203125 397.460938 383.378906 399.453125 C 383.679688 402.800781 384.441406 408.910156 385.496094 416.75 C 405.71875 413.230469 425.101562 403.6875 440.714844 388.046875 C 471.238281 357.496094 478.621094 312.570312 462.910156 275.039062 " fill-opacity="1" fill-rule="nonzero"/></g><path fill="rgb(100%, 100%, 100%)" d="M 303.597656 98.03125 C 263.304688 57.695312 197.976562 57.695312 157.679688 98.03125 C 117.382812 138.375 117.382812 203.78125 157.679688 244.125 C 175.066406 261.53125 197.113281 271.410156 219.800781 273.792969 C 220.773438 260.179688 221.113281 253.695312 221.113281 253.695312 C 221.113281 253.695312 221.886719 240.664062 213.726562 234.464844 C 202.675781 226.070312 178.273438 216.71875 182.070312 172.347656 C 185.867188 127.976562 208.035156 93.410156 229.140625 94.445312 C 251.597656 93.410156 272.128906 127.976562 276.171875 172.347656 C 280.210938 216.71875 254.835938 226.855469 242.484375 234.464844 C 233.570312 239.960938 234.488281 253.695312 234.488281 253.695312 C 234.488281 253.695312 234.628906 259.410156 235.605469 274.242188 C 243.519531 273.863281 251.402344 272.574219 259.078125 270.382812 C 264.015625 255.945312 272.222656 242.390625 283.722656 230.875 C 296.554688 218.019531 311.941406 209.285156 328.242188 204.628906 C 340.605469 168.492188 332.394531 126.867188 303.597656 98.03125 " fill-opacity="1" fill-rule="nonzero"/><path fill="rgb(100%, 100%, 100%)" d="M 579.261719 92.8125 C 552.617188 66.136719 515.039062 57.113281 480.984375 65.707031 C 448.117188 74.507812 412.722656 94.492188 404.144531 151.292969 C 399.753906 182.347656 409.480469 215.011719 433.339844 238.898438 C 451.273438 256.851562 474.160156 266.792969 497.601562 268.769531 C 497.765625 257.414062 497.359375 250.132812 497.191406 247.675781 C 497.097656 246.523438 497.042969 245.601562 497.042969 244.976562 C 497.042969 239.695312 475.09375 227.652344 472.980469 210.535156 C 470.875 193.421875 485.789062 104.390625 486.351562 100.027344 C 486.910156 95.660156 488.882812 95.023438 489.800781 95.214844 C 490.710938 95.402344 490.5 96.15625 490.5 96.15625 C 490.5 96.15625 487.898438 182.21875 487.828125 184.757812 C 487.757812 187.292969 487.757812 189.757812 490.640625 189.824219 C 493.527344 189.894531 493.878906 186.238281 493.878906 186.238281 C 493.878906 186.238281 498.523438 103.617188 499.152344 98.335938 C 499.789062 93.050781 502.246094 97.28125 502.246094 97.28125 L 502.53125 184.964844 C 502.53125 184.964844 501.972656 190.535156 505.769531 190.746094 C 510.90625 190.675781 510.0625 184.964844 510.0625 184.964844 L 510.347656 97.28125 C 510.347656 97.28125 512.808594 93.050781 513.441406 98.335938 C 514.078125 103.617188 518.71875 186.238281 518.71875 186.238281 C 518.71875 186.238281 519.070312 189.894531 521.953125 189.824219 C 524.839844 189.757812 524.839844 187.292969 524.765625 184.757812 C 524.695312 182.21875 522.097656 96.15625 522.097656 96.15625 C 522.097656 96.15625 521.886719 95.402344 522.796875 95.214844 C 523.714844 95.023438 525.683594 95.660156 526.246094 100.027344 C 526.808594 104.390625 541.71875 193.421875 539.613281 210.535156 C 537.503906 227.652344 515.554688 239.695312 515.554688 244.976562 C 515.554688 245.667969 515.488281 246.726562 515.378906 248.046875 C 515.332031 248.523438 514.855469 254.542969 514.964844 268.769531 C 538.414062 266.800781 561.316406 256.859375 579.261719 238.898438 C 619.550781 198.554688 619.550781 133.152344 579.261719 92.8125 " fill-opacity="1" fill-rule="nonzero"/></svg>